<svg xmlns="http://www.w3.org/2000/svg" width="64" height="64" viewBox="0 0 64 64" role="img" aria-labelledby="title desc">
  <title id="title">Medieval Player Farmer Front</title>
  <desc id="desc">A front-facing farmer player with a straw hat and simple tunic.</desc>
  <ellipse cx="32" cy="57" rx="14" ry="4" fill="#1f1a15" opacity="0.35"/>
  <ellipse cx="32" cy="14" rx="11" ry="3" fill="#b38745" stroke="#2d1f14" stroke-width="2"/>
  <rect x="23" y="14" width="18" height="4" rx="1" fill="#c79a53" stroke="#2d1f14" stroke-width="2"/>
  <circle cx="32" cy="20" r="6" fill="#caa27f" stroke="#2d1f14" stroke-width="2"/>
  <path d="M23 31c1-6 5-10 9-10s8 4 9 10v6H23z" fill="#6b513a" stroke="#2d1f14" stroke-width="2"/>
  <path d="M22 37h20l-3 14H25z" fill="#4c6d3b" stroke="#2d1f14" stroke-width="2"/>
  <rect x="20" y="37" width="5" height="12" rx="2" fill="#6b513a" stroke="#2d1f14" stroke-width="2"/>
  <rect x="39" y="37" width="5" height="12" rx="2" fill="#6b513a" stroke="#2d1f14" stroke-width="2"/>
  <rect x="29" y="39" width="6" height="5" rx="1" fill="#8b5e34" stroke="#2d1f14" stroke-width="1.5"/>
  <rect x="26" y="50" width="5" height="8" rx="2" fill="#4a3526" stroke="#2d1f14" stroke-width="2"/>
  <rect x="33" y="50" width="5" height="8" rx="2" fill="#4a3526" stroke="#2d1f14" stroke-width="2"/>
</svg>