<svg xmlns="http://www.w3.org/2000/svg" width="64" height="64" viewBox="0 0 64 64" role="img" aria-labelledby="title desc">
  <title id="title">Medieval NPC Engineer Front</title>
  <desc id="desc">A medieval mechanic in an olive work tunic with tool belt, facing forward.</desc>
  <ellipse cx="32" cy="57" rx="14" ry="4" fill="#1f1a15" opacity="0.35"/>
  <circle cx="32" cy="16" r="7" fill="#caa27f" stroke="#2d1f14" stroke-width="2"/>
  <rect x="27" y="9" width="10" height="4" rx="2" fill="#6f7782" stroke="#2d1f14" stroke-width="1.5"/>
  <circle cx="29" cy="16" r="1" fill="#2d1f14"/>
  <circle cx="35" cy="16" r="1" fill="#2d1f14"/>
  <path d="M22 25c1-6 5-10 10-10s9 4 10 10v7H22z" fill="#4e5e28" stroke="#2d1f14" stroke-width="2"/>
  <path d="M21 32h22l-3 17H24z" fill="#5a6d2f" stroke="#2d1f14" stroke-width="2"/>
  <rect x="19" y="32" width="6" height="13" rx="2" fill="#4e5e28" stroke="#2d1f14" stroke-width="2"/>
  <rect x="39" y="32" width="6" height="13" rx="2" fill="#4e5e28" stroke="#2d1f14" stroke-width="2"/>
  <rect x="22" y="43" width="20" height="5" rx="2" fill="#6b4a2a" stroke="#2d1f14" stroke-width="1.5"/>
  <rect x="26" y="49" width="5" height="9" rx="2" fill="#4a3526" stroke="#2d1f14" stroke-width="2"/>
  <rect x="33" y="49" width="5" height="9" rx="2" fill="#4a3526" stroke="#2d1f14" stroke-width="2"/>
  <rect x="38" y="36" width="3" height="8" rx="1" fill="#9aa0a6" stroke="#2d1f14" stroke-width="1.5"/>
  <rect x="36" y="35" width="7" height="2" rx="1" fill="#9aa0a6" stroke="#2d1f14" stroke-width="1"/>
</svg>
