<svg xmlns="http://www.w3.org/2000/svg" width="64" height="64" viewBox="0 0 64 64" role="img" aria-labelledby="title desc">
  <title id="title">Medieval Player Farmer Away</title>
  <desc id="desc">An away-facing farmer player with a straw hat and work clothes.</desc>
  <ellipse cx="32" cy="57" rx="14" ry="4" fill="#1f1a15" opacity="0.35"/>
  <ellipse cx="32" cy="14" rx="11" ry="3" fill="#b38745" stroke="#2d1f14" stroke-width="2"/>
  <rect x="23" y="14" width="18" height="4" rx="1" fill="#c79a53" stroke="#2d1f14" stroke-width="2"/>
  <path d="M26 17h12v8H26z" fill="#c79a53" stroke="#2d1f14" stroke-width="2"/>
  <path d="M25 30c1-5 5-9 7-9s6 4 7 9v7H25z" fill="#6b513a" stroke="#2d1f14" stroke-width="2"/>
  <path d="M23 36h18l-2 15H25z" fill="#4c6d3b" stroke="#2d1f14" stroke-width="2"/>
  <rect x="20" y="37" width="5" height="12" rx="2" fill="#6b513a" stroke="#2d1f14" stroke-width="2"/>
  <rect x="39" y="37" width="5" height="12" rx="2" fill="#6b513a" stroke="#2d1f14" stroke-width="2"/>
  <path d="M28 40h8" stroke="#8b5e34" stroke-width="2"/>
  <rect x="25" y="50" width="5" height="8" rx="2" fill="#4a3526" stroke="#2d1f14" stroke-width="2"/>
  <rect x="34" y="50" width="5" height="8" rx="2" fill="#4a3526" stroke="#2d1f14" stroke-width="2"/>
</svg>