<svg xmlns="http://www.w3.org/2000/svg" width="64" height="64" viewBox="0 0 64 64" role="img" aria-labelledby="title desc">
  <title id="title">Medieval NPC Engineer Away</title>
  <desc id="desc">A medieval mechanic in an olive work tunic, seen from behind.</desc>
  <ellipse cx="32" cy="57" rx="14" ry="4" fill="#1f1a15" opacity="0.35"/>
  <rect x="26" y="11" width="12" height="10" rx="3" fill="#b08060" stroke="#2d1f14" stroke-width="2"/>
  <rect x="27" y="9" width="10" height="4" rx="2" fill="#6f7782" stroke="#2d1f14" stroke-width="1.5"/>
  <path d="M22 24c1-5 5-9 10-9s9 4 10 9v8H22z" fill="#4e5e28" stroke="#2d1f14" stroke-width="2"/>
  <path d="M21 32h22l-3 17H24z" fill="#5a6d2f" stroke="#2d1f14" stroke-width="2"/>
  <rect x="19" y="32" width="6" height="13" rx="2" fill="#4e5e28" stroke="#2d1f14" stroke-width="2"/>
  <rect x="39" y="32" width="6" height="13" rx="2" fill="#4e5e28" stroke="#2d1f14" stroke-width="2"/>
  <rect x="22" y="43" width="20" height="5" rx="2" fill="#6b4a2a" stroke="#2d1f14" stroke-width="1.5"/>
  <rect x="26" y="49" width="5" height="9" rx="2" fill="#4a3526" stroke="#2d1f14" stroke-width="2"/>
  <rect x="33" y="49" width="5" height="9" rx="2" fill="#4a3526" stroke="#2d1f14" stroke-width="2"/>
</svg>
