<svg xmlns="http://www.w3.org/2000/svg" width="64" height="64" viewBox="0 0 64 64" role="img" aria-labelledby="title desc">
  <title id="title">Medieval Player Farmer Right</title>
  <desc id="desc">A right-facing farmer player with a straw hat and simple tunic.</desc>
  <ellipse cx="32" cy="57" rx="14" ry="4" fill="#1f1a15" opacity="0.35"/>
  <ellipse cx="32" cy="14" rx="11" ry="3" fill="#b38745" stroke="#2d1f14" stroke-width="2"/>
  <rect x="23" y="14" width="18" height="4" rx="1" fill="#c79a53" stroke="#2d1f14" stroke-width="2"/>
  <path d="M29 16c2-2 5-2 8 0v9h-8z" fill="#c79a53" stroke="#2d1f14" stroke-width="2"/>
  <path d="M38 20c0 3-2 6-6 6-3 0-5-2-5-6 0-4 2-6 5-6 4 0 6 2 6 6z" fill="#caa27f" stroke="#2d1f14" stroke-width="2"/>
  <circle cx="35" cy="20" r="1" fill="#2d1f14"/>
  <path d="M22 31c2-6 5-9 8-9 4 0 8 3 10 9v5H22z" fill="#6b513a" stroke="#2d1f14" stroke-width="2"/>
  <path d="M22 36h19l-3 15H26z" fill="#4c6d3b" stroke="#2d1f14" stroke-width="2"/>
  <rect x="21" y="39" width="5" height="10" rx="2" fill="#6b513a" stroke="#2d1f14" stroke-width="2"/>
  <rect x="39" y="37" width="5" height="11" rx="2" fill="#6b513a" stroke="#2d1f14" stroke-width="2"/>
  <rect x="26" y="50" width="5" height="8" rx="2" fill="#4a3526" stroke="#2d1f14" stroke-width="2"/>
  <rect x="34" y="50" width="5" height="8" rx="2" fill="#4a3526" stroke="#2d1f14" stroke-width="2"/>
</svg>