<svg xmlns="http://www.w3.org/2000/svg" width="64" height="64" viewBox="0 0 64 64" role="img" aria-labelledby="title desc">
  <title id="title">Medieval Guard Shield Spear Front</title>
  <desc id="desc">A front-facing guard with a kite shield and upright spear.</desc>
  <ellipse cx="32" cy="57" rx="15" ry="4" fill="#1f1a15" opacity="0.35"/>
  <circle cx="32" cy="16" r="7" fill="#caa27f" stroke="#2d1f14" stroke-width="2"/>
  <path d="M22 25c1-6 6-10 10-10s9 4 10 10v8H22z" fill="#5f646b" stroke="#2d1f14" stroke-width="2"/>
  <rect x="24" y="31" width="16" height="18" rx="3" fill="#6f3b31" stroke="#2d1f14" stroke-width="2"/>
  <rect x="20" y="31" width="6" height="15" rx="2" fill="#5f646b" stroke="#2d1f14" stroke-width="2"/>
  <rect x="38" y="31" width="6" height="15" rx="2" fill="#5f646b" stroke="#2d1f14" stroke-width="2"/>
  <rect x="25" y="48" width="5" height="10" rx="2" fill="#4a3526" stroke="#2d1f14" stroke-width="2"/>
  <rect x="34" y="48" width="5" height="10" rx="2" fill="#4a3526" stroke="#2d1f14" stroke-width="2"/>
  <path d="M45 11h3v43h-3z" fill="#91633c" stroke="#2d1f14" stroke-width="1.5"/>
  <path d="M46.5 7l4 6h-8z" fill="#aeb4bb" stroke="#2d1f14" stroke-width="1.5"/>
  <path d="M16 33l7-4 7 4v10c0 5-3 9-7 11-4-2-7-6-7-11z" fill="#4f5358" stroke="#2d1f14" stroke-width="2"/>
  <path d="M23 35v15" stroke="#aeb4bb" stroke-width="1.5"/>
  <path d="M18 40h10" stroke="#aeb4bb" stroke-width="1.5"/>
</svg>