<svg xmlns="http://www.w3.org/2000/svg" width="64" height="64" viewBox="0 0 64 64" role="img" aria-labelledby="title desc">
  <title id="title">Medieval NPC Villager Front</title>
  <desc id="desc">A friendly village resident in a simple tunic, facing forward.</desc>
  <ellipse cx="32" cy="57" rx="14" ry="4" fill="#1f1a15" opacity="0.35"/>
  <circle cx="32" cy="16" r="7" fill="#caa27f" stroke="#2d1f14" stroke-width="2"/>
  <circle cx="29" cy="15" r="1" fill="#2d1f14"/>
  <circle cx="35" cy="15" r="1" fill="#2d1f14"/>
  <path d="M23 25c1-6 5-10 9-10s8 4 9 10v6H23z" fill="#6b513a" stroke="#2d1f14" stroke-width="2"/>
  <path d="M22 31h20l-3 18H25z" fill="#8a6a45" stroke="#2d1f14" stroke-width="2"/>
  <rect x="20" y="31" width="5" height="14" rx="2" fill="#6b513a" stroke="#2d1f14" stroke-width="2"/>
  <rect x="39" y="31" width="5" height="14" rx="2" fill="#6b513a" stroke="#2d1f14" stroke-width="2"/>
  <rect x="26" y="49" width="5" height="9" rx="2" fill="#4a3526" stroke="#2d1f14" stroke-width="2"/>
  <rect x="33" y="49" width="5" height="9" rx="2" fill="#4a3526" stroke="#2d1f14" stroke-width="2"/>
  <rect x="29" y="34" width="6" height="9" rx="1" fill="#91633c" stroke="#2d1f14" stroke-width="1.5"/>
</svg>
