<svg xmlns="http://www.w3.org/2000/svg" width="64" height="64" viewBox="0 0 64 64" role="img" aria-labelledby="title desc">
  <title id="title">Medieval NPC Archivist Right</title>
  <desc id="desc">A scholarly archivist in a deep blue robe, facing right, scroll in hand.</desc>
  <ellipse cx="32" cy="57" rx="14" ry="4" fill="#1f1a15" opacity="0.35"/>
  <path d="M38 16c0 4-3 7-7 7-4 0-7-3-7-7s3-7 7-7c4 0 7 3 7 7z" fill="#d4a47c" stroke="#2d1f14" stroke-width="2"/>
  <rect x="29" y="12" width="8" height="2" rx="1" fill="#2d1f14"/>
  <circle cx="36" cy="16" r="1" fill="#2d1f14"/>
  <path d="M21 26c2-5 5-9 10-9 4 0 8 4 10 9v7H21z" fill="#2e4a6b" stroke="#2d1f14" stroke-width="2"/>
  <path d="M21 33h21l-3 16H25z" fill="#365a7a" stroke="#2d1f14" stroke-width="2"/>
  <rect x="20" y="34" width="5" height="11" rx="2" fill="#2e4a6b" stroke="#2d1f14" stroke-width="2"/>
  <rect x="39" y="33" width="5" height="12" rx="2" fill="#2e4a6b" stroke="#2d1f14" stroke-width="2"/>
  <rect x="26" y="49" width="5" height="9" rx="2" fill="#2d1f14" stroke="#2d1f14" stroke-width="1.5"/>
  <rect x="33" y="49" width="5" height="9" rx="2" fill="#2d1f14" stroke="#2d1f14" stroke-width="1.5"/>
  <rect x="43" y="33" width="8" height="11" rx="2" fill="#e8dfc4" stroke="#2d1f14" stroke-width="1.5"/>
  <line x1="45" y1="37" x2="49" y2="37" stroke="#a08050" stroke-width="1.5"/>
  <line x1="45" y1="40" x2="49" y2="40" stroke="#a08050" stroke-width="1.5"/>
</svg>
