<svg xmlns="http://www.w3.org/2000/svg" width="64" height="64" viewBox="0 0 64 64" role="img" aria-labelledby="title desc">
  <title id="title">Medieval NPC Gossip Front</title>
  <desc id="desc">A talkative gossip in a purple tunic, facing forward.</desc>
  <ellipse cx="32" cy="57" rx="14" ry="4" fill="#1f1a15" opacity="0.35"/>
  <circle cx="32" cy="16" r="7" fill="#caa27f" stroke="#2d1f14" stroke-width="2"/>
  <circle cx="29" cy="15" r="1" fill="#2d1f14"/>
  <circle cx="35" cy="15" r="1" fill="#2d1f14"/>
  <path d="M23 13 Q28 10 32 14 Q36 10 41 13" fill="none" stroke="#2d1f14" stroke-width="1.5"/>
  <path d="M22 25c1-6 5-10 10-10s9 4 10 10v7H22z" fill="#7a3f6b" stroke="#2d1f14" stroke-width="2"/>
  <path d="M21 32h22l-3 17H24z" fill="#8c4d7d" stroke="#2d1f14" stroke-width="2"/>
  <rect x="19" y="32" width="6" height="13" rx="2" fill="#7a3f6b" stroke="#2d1f14" stroke-width="2"/>
  <rect x="39" y="32" width="6" height="13" rx="2" fill="#7a3f6b" stroke="#2d1f14" stroke-width="2"/>
  <rect x="26" y="49" width="5" height="9" rx="2" fill="#4a3526" stroke="#2d1f14" stroke-width="2"/>
  <rect x="33" y="49" width="5" height="9" rx="2" fill="#4a3526" stroke="#2d1f14" stroke-width="2"/>
  <rect x="27" y="35" width="10" height="7" rx="2" fill="#f0d2e8" stroke="#2d1f14" stroke-width="1.5"/>
  <line x1="29" y1="38" x2="35" y2="38" stroke="#7a3f6b" stroke-width="1.5"/>
  <line x1="29" y1="40" x2="35" y2="40" stroke="#7a3f6b" stroke-width="1.5"/>
</svg>
